<svg version="1" xmlns="http://www.w3.org/2000/svg" width="266.667" height="266.667" viewBox="0 0 200.000000 200.000000"><path d="M51.5 7.4c-4.5 2-6.7 5-7.2 10-.6 5.2 2 10.5 6.2 12.4 2.4 1.1 2.5 1.4 2.5 11.6v10.4l-7.6 7.6c-8.7 8.7-7.2 8.8-17.1-1.2-5.8-5.8-6.3-6.6-6.3-10.7 0-3.4.4-4.5 1.8-4.9 3.3-1.1 6.3-5.3 6.9-9.6 1.2-8.4-5.3-14.9-13.6-13.7-12.3 1.6-14.6 17-3.5 23.3 1.4.8 1.9 2.3 2 5.5 0 5.5 1 8.5 2.9 9.3 2.4.9 1.8 1.9-3.8 7.8l-5.4 5.6-.1 24.3c0 19.7-.4 25.2-1.6 28.7-2.1 5.5-1.4 12.8 1.6 18.9 2.6 5.3 6.6 8.8 12.8 11.6 4.2 1.9 6.7 2 46 1.9 22.8 0 42.2.2 43 .4.9.2 1.6 1.7 1.7 3.8.4 8.3 6.3 13.8 15.5 14.4l5.8.4 1.2 4.6c2 8.1 11.8 15.3 18.5 13.6 2.5-.7 2.5-.8 2.5-11.7 0-6.5.2-6.9 2.7-7.8 3.6-1.4 7-4.8 8.7-8.7.7-1.8 1.3-3.6 1.3-4-.6-3.7.3-5.2 2.9-5.2 3.4 0 9.8-2.9 13.7-6.2 10.2-8.7 10.7-26.4.9-36.2-3.3-3.3-9.5-6.6-12.2-6.6-2.9 0-5.5-8.7-5.3-17.5l.2-7 7.8-8 7.7-8-.1-6.8c-.2-6.6-.1-6.9 2.7-8.3 6.3-3.3 8.3-12.5 4-18.4-2.3-3.1-8.6-5.3-12.9-4.5-4.7.8-9.3 6.6-9.3 11.5 0 5.3 1.4 8.1 5.6 10.9 3.2 2.2 3.4 2.7 3.4 8 0 5.4-.2 5.9-4.5 10.1l-4.5 4.4v-15l-4.9-4.8-4.8-4.7.1-8.9c.1-4.9.3-9 .6-9.2.3-.2 1.4-.8 2.4-1.4 3.7-2 6.1-6.3 6-10.8-.1-5.2-2.5-8.9-7-11.1-10.3-4.9-21.1 5.8-16.4 16.3 1.1 2.4 3.1 4.7 4.9 5.7 3.1 1.6 3.1 1.6 3.1 10.2v8.6l-4.5 4.8c-2.5 2.6-4.5 5.4-4.6 6.1 0 .7-.1 6.7-.2 13.3-.2 14.4-.9 15.1-8.6 7.6-5-4.8-11.9-8.1-17.3-8.1-1.8 0-2.2-1-1.8-4 .1-.8 2.8-4.2 6.1-7.5l5.9-6.1V46c0-8.3.1-8.5 2.9-10.2 8.1-4.5 8.5-16.2.8-21.2-3.5-2.4-9.2-2.6-12.6-.5-8.6 5.2-8.6 16.9 0 21.7 2.8 1.6 2.9 2 2.9 8.7v6.9l-6.2 6.3c-5.5 5.5-6.2 6.8-6.4 10.4-.1 3.9-.4 4.2-4.7 6.1-4.6 2-4.7 2-9.2.2-2.8-1.2-4.5-2.6-4.6-3.7-.8-12.3-.6-13 3.9-17.2 3.3-3.1 4.5-5 4.9-8.1 1.9-14.1-17.9-19.7-23.4-6.6-2.3 5.5-1.1 10 3.9 14.7 4.3 4 4.3 4 4.2 11l-.1 7-4.1.7c-2.3.4-5 1.2-6.2 1.8-2 1-2 .8-2-10.5V51.9l-6.2-6.1c-5.6-5.5-6.2-6.6-6.4-10.5-.2-3.8.1-4.6 2.1-5.3 3.1-1.2 6.2-5.3 6.9-9.5C70.2 11.3 60 3.4 51.5 7.4zm7.6 6.1c4.1 2.5 4.1 8.2 0 10.4-2.9 1.6-4.9 1.3-7.1-.9-2.7-2.7-2.5-6.4.5-8.8 2.7-2.1 4-2.2 6.6-.7zm101.7.8c.6.5 1.2 2.3 1.2 4 0 6-5.9 8.8-10 4.7-5.6-5.6 2.4-13.7 8.8-8.7zm-31.6 6.4c2.2 2 2.3 6.1.1 8.5-3.4 3.8-10.3 1.1-10.3-4 0-5.4 6.2-8.1 10.2-4.5zM23 27c2.6 2.6 2.5 5.6-.3 8.4-3.1 3-7.2 2.4-9.1-1.3C10.4 27.8 18 22 23 27zm162.9 9.5c3.3 3.2 0 10.5-4.8 10.5-2.5 0-6.1-3.7-6.1-6.3.1-5.7 6.6-8.2 10.9-4.2zm-93 5c1.2 2.4 1.1 3-.6 5.4-2.7 3.5-6.9 3.5-9.6-.1-1.7-2.3-1.9-3.1-.9-5.3 2.3-5.1 8.6-5.1 11.1 0zm-30.1 10c2.6 2.4 2.7 2.8 2.7 14.7.1 11.7 0 12.5-2.4 15.6-2.4 3-3 3.2-7.6 2.8-4.4-.3-5-.6-5.6-3.1-.5-1.5-2.2-3.9-3.8-5.4-1.7-1.6-3.1-3.4-3.1-4.2 0-.8 3.6-4.9 8-9.3 7.9-7.8 8.4-8.5 8.1-11.9-.3-2.3.5-2.2 3.7.8zm96.8 6.6l2.9 3v14c.1 12.2-.1 13.9-1.5 13.3-.8-.4-3.6-1.4-6.2-2.3l-4.8-1.6V72.6c0-11.7.1-12.1 2.7-14.8 1.5-1.5 3-2.8 3.3-2.8.3 0 1.9 1.4 3.6 3.1zM35.8 74.4c4.5 4.7 8.2 9.2 8.2 10 0 .9-1.2 2.2-2.7 3-5.9 3-10.1 8.7-12.7 16.9-.3.9-1.4 2-2.3 2.3-1 .3-3.7 1.4-5.9 2.4-2.3 1-4.4 1.7-4.5 1.5-.2-.2-.4-8.7-.3-18.9l.1-18.5 4.4-4.5c3.2-3.2 4.8-4.2 5.9-3.6.8.5 5.2 4.7 9.8 9.4zm54.7 4.7c4.1 1 4.4 1.3 3.3 3.2-.8 1.6-.7 2.3.8 3.4 2.3 1.7 4 1.7 4.7-.1.3-.8 2.6-2.6 5.1-4.1 8.2-4.8 19.2-3.8 25.9 2.3 3 2.9 3.5 5 1.2 5.8-1.9.8-1.9 2.3.1 4.5 1.6 1.8 1.8 1.7 5.8-.6 11.9-6.9 26.3.3 28.1 14 .2 2.1.6 4 .9 4.2.5.6 3.4 1.1 6.1 1.2 3.3.1 10.1 5.1 12.3 9 5.5 9.7 1.6 21.8-8.4 26.3-3.6 1.5-6.3 1.8-15.6 1.6-10.4-.3-11.3-.5-11.6-2.3-.2-1.1-1.5-4.3-2.9-7.2-2.5-5-2.5-5.3-.9-7.8 1-1.5 3.1-3.1 4.7-3.7 2.3-.8 2.9-1.6 2.9-4 0-2.9-.2-3-3.2-2.4-4.3.8-7.6 3.2-9.6 6.6-1.5 2.6-1.7 2.7-4.9 1.4-1.8-.8-4.9-1.7-6.8-2-3.6-.5-3.6-.5-3.3 2.7.3 3 .7 3.4 4.2 4.1 2.2.5 5.4 1.9 7.1 3.3 3 2.2 6.5 7.9 6.5 10.4 0 .8-6.2 1.1-21.7.9l-21.7-.3-.7-3.4c-.4-1.8-1.7-4.7-2.9-6.3-3.7-5-.1-12.1 7.5-14.5 2.4-.8 2.9-1.5 2.7-3.4-.5-3.2-.6-3.2-4.9-2.4-3.7.7-11.4 7.1-12.5 10.5-.4 1.2-1.2 1.2-5.7-.3-7.6-2.4-8.3-2.3-7.9 1.5.2 2.5.8 3.3 2.3 3.4 6 .3 13.5 6.6 15 12.7l.7 2.8-34-.3-34-.3-4.3-3c-11.1-7.9-10.9-23.5.4-30.8 2.3-1.5 5.2-2.8 6.7-2.8 1.4-.1 3.2-.2 4-.3 2.3-.2 7.2 1.5 10.1 3.5 2.6 1.8 2.7 1.8 4.9-.6l2.2-2.3-4.1-2.7c-2.3-1.4-5.5-2.8-7.1-3.2-3.7-.7-3.8-2.3-.5-7.9 4.8-8.1 16.5-10.9 25-5.9l4.2 2.4 2.1-2.2c2.1-2.2 2.1-2.3.2-3.5-2.9-1.8-2.5-3.7 1.5-6.9 5.9-4.8 12.4-6.1 20-4.2zm71.7 80.9c-.2 2-1.4 4.5-2.8 6-2.4 2.4-2.8 2.5-17.7 2.6-19.2.2-22.7-1.2-22.7-9.4v-3l21.8.2 21.7.1-.3 3.5zM150 181c0 3.3-.4 6-.9 6-2.2 0-8.1-6.8-8.1-9.4 0-2.4.3-2.6 4.5-2.6h4.5v6z"/><path d="M81 94c0 2 .5 3 1.5 3 2.6 0 6.3 3 7.3 5.9 1 2.9 4.1 4.4 6.3 3.1 1-.7.9-1.8-.5-5.4-2-5.3-7.4-9.6-11.8-9.6-2.4 0-2.8.4-2.8 3zM109.2 96.9c.1 2.5.6 3 3.5 3.6 4.6.8 9.9 5.8 11.6 10.8 1.1 3.4 1.8 4.2 4 4.4 2.3.2 2.7-.2 2.7-2.5-.1-3.8-3.2-10.2-6.6-13.4-3.4-3.1-9.3-5.8-12.8-5.8-2.1 0-2.5.5-2.4 2.9zM72.1 107.6c-4.1 1.7-7.9 5.9-9 9.9-1 3.9-.6 4.5 3 4.5 2.2 0 2.9-.5 2.9-1.9 0-2.5 4.5-7.1 7-7.1 1.6 0 2-.6 2-3.5 0-3.9-.8-4.2-5.9-1.9zM37.9 128.2c-.5 1.5-.5 5.8 0 5.9.3.1 1.7.2 3.1.3 2.1.1 2.5-.3 2.5-2.9 0-2.5-.4-3-2.8-3.3-1.5-.2-2.7-.2-2.8 0zM50.2 131.2c.3 3.5 2.9 4.6 5.2 2.2 2.3-2.3.8-5.4-2.6-5.4-2.7 0-2.9.3-2.6 3.2zM62.7 128.7c-.3.7-.3 1.8.1 4.9.2.9 2.4 1.2 5.3.5.3 0 .6-1.5.7-3.1.1-2.7-.3-3-2.8-3-1.6 0-3.1.3-3.3.7z"/></svg>